<svg aria-hidden="true" style="position: absolute; width: 0; height: 0; overflow: hidden;" version="1.1" xmlns="http://www.w3.org/2000/svg" xmlns:xlink="http://www.w3.org/1999/xlink">
<defs>
<symbol id="icon-Frame-vector-arrow" viewBox="0 0 102 32">
<path fill="#fff" style="fill: var(--color1, #fff); stroke: var(--color1, #fff)" stroke="#fff" stroke-linejoin="miter" stroke-linecap="butt" stroke-miterlimit="4" stroke-width="8" d="M90 22.343v-12.686l6.343 6.343-6.343 6.343z"></path>
<path fill="none" stroke="#fff" style="stroke: var(--color1, #fff)" stroke-linejoin="miter" stroke-linecap="butt" stroke-miterlimit="4" stroke-width="6" d="M86 16h-86"></path>
</symbol>
<symbol id="icon-facebook" viewBox="0 0 17 32">
<path d="M11.734 31.65v-14.437h4.451l0.664-5.627h-5.115v-3.587c0-1.635 0.412-2.734 2.564-2.734h2.737v-5.048c-0.478-0.072-2.099-0.217-3.986-0.217-3.946 0-6.643 2.618-6.643 7.435v4.152h-4.464v5.627h4.464v14.437h5.328z"></path>
</symbol>
<symbol id="icon-Frame-89" viewBox="0 0 32 32">
<path stroke="black" stroke-opacity="0.6" stroke-linejoin="miter" stroke-linecap="round" stroke-miterlimit="4" stroke-width="3.2" d="M3.2 16h12.8M16 16v12.8M16 16v-12.8M16 16h12.8"></path>
</symbol>
<symbol id="icon-Frame-color-close" viewBox="0 0 32 32">
<path fill="#fff" style="fill: var(--color1, #fff)" d="M1.6 17.6c0 0.884 0.716 1.6 1.6 1.6h25.6c0.884 0 1.6-0.716 1.6-1.6s-0.716-1.6-1.6-1.6h-25.6c-0.884 0-1.6 0.716-1.6 1.6z"></path>
</symbol>
<symbol id="icon-instagram" viewBox="0 0 32 32">
<path   d="M24 0h-16c-4.4 0-8 3.599-8 8v16c0 4.399 3.6 8 8 8h16c4.399 0 8-3.601 8-8v-16c0-4.401-3.601-8-8-8zM16 22.666c-3.682 0-6.667-2.986-6.667-6.666 0-3.682 2.984-6.667 6.667-6.667 3.681 0 6.667 2.984 6.667 6.667 0 3.681-2.986 6.666-6.667 6.666zM24.667 9.333c-1.106 0-2-0.896-2-2s0.894-2 2-2c1.105 0 2 0.896 2 2s-0.895 2-2 2z"></path>
</symbol>
<symbol id="icon-lock-2" viewBox="0 0 31 32">
<path fill="#060048" style="fill: var(--color2, #060048)" opacity="0.2" d="M6.961 30.837h16.792c1.259 0 2.279-1.066 2.275-2.377l-0.001-0.335c0.010-4.372 0.013-8.744-0.002-13.116-0.005-1.475-1.18-2.668-2.597-2.703-0.206-0.005-0.413-0.004-0.632-0.003-0.104 0.001-0.211 0.001-0.322 0.001v-0.321c0-0.314 0-0.628 0-0.943 0-0.786 0-1.572-0.001-2.358-0.007-3.768-2.506-6.819-6.078-7.424-3.722-0.631-7.448 2.164-8.040 6.042-0.074 0.483-0.104 0.978-0.111 1.468-0.011 0.825-0.009 1.651-0.007 2.489 0.001 0.346 0.002 0.694 0.002 1.045-0.090 0-0.178-0-0.264-0-0.169-0-0.332-0-0.495 0-1.651 0.003-2.798 1.192-2.799 2.908-0.002 4.217-0.001 8.434-0.001 12.651v0.6c0 1.311 1.021 2.375 2.28 2.375zM16.87 3.91c1.893 0.682 3.146 2.564 3.164 4.651l0.033 3.724h-9.439c-0.002-0.033-0.004-0.065-0.005-0.095-0.004-0.061-0.007-0.117-0.007-0.174-0-0.305-0.001-0.611-0.001-0.916-0.001-0.814-0.002-1.628 0.002-2.442 0.013-2.546 1.646-4.535 4.060-4.952 0.748-0.129 1.499-0.047 2.194 0.204zM11.191 24.298c-0.382 0-0.725-0.065-1.028-0.194s-0.546-0.321-0.73-0.574c-0.179-0.253-0.273-0.559-0.283-0.915h1.355c0.020 0.202 0.087 0.357 0.201 0.466 0.114 0.103 0.263 0.155 0.447 0.155 0.189 0 0.338-0.044 0.447-0.132 0.109-0.093 0.164-0.22 0.164-0.38 0-0.135-0.045-0.246-0.134-0.334-0.084-0.088-0.191-0.16-0.32-0.217-0.124-0.057-0.303-0.122-0.536-0.194-0.338-0.109-0.613-0.217-0.827-0.326s-0.397-0.269-0.551-0.481c-0.154-0.212-0.231-0.489-0.231-0.83 0-0.507 0.176-0.903 0.529-1.187 0.352-0.29 0.812-0.434 1.378-0.434 0.576 0 1.040 0.145 1.393 0.434 0.352 0.284 0.541 0.683 0.566 1.195h-1.378c-0.010-0.176-0.072-0.313-0.186-0.411-0.114-0.103-0.261-0.155-0.439-0.155-0.154 0-0.278 0.044-0.372 0.132-0.094 0.083-0.142 0.204-0.142 0.365 0 0.176 0.079 0.313 0.238 0.411s0.407 0.204 0.745 0.318c0.338 0.119 0.611 0.233 0.819 0.341 0.213 0.109 0.397 0.266 0.551 0.473s0.231 0.473 0.231 0.799c0 0.31-0.077 0.592-0.231 0.846-0.149 0.253-0.367 0.455-0.655 0.605s-0.628 0.225-1.020 0.225zM15.772 24.298c-0.382 0-0.725-0.065-1.028-0.194s-0.546-0.321-0.73-0.574c-0.179-0.253-0.273-0.559-0.283-0.915h1.355c0.020 0.202 0.087 0.357 0.201 0.466 0.114 0.103 0.263 0.155 0.447 0.155 0.189 0 0.338-0.044 0.447-0.132 0.109-0.093 0.164-0.22 0.164-0.38 0-0.135-0.045-0.246-0.134-0.334-0.084-0.088-0.191-0.16-0.32-0.217-0.124-0.057-0.303-0.122-0.536-0.194-0.338-0.109-0.613-0.217-0.827-0.326s-0.397-0.269-0.551-0.481c-0.154-0.212-0.231-0.489-0.231-0.83 0-0.507 0.176-0.903 0.529-1.187 0.352-0.29 0.812-0.434 1.378-0.434 0.576 0 1.040 0.145 1.393 0.434 0.352 0.284 0.541 0.683 0.566 1.195h-1.378c-0.010-0.176-0.072-0.313-0.186-0.411-0.114-0.103-0.261-0.155-0.439-0.155-0.154 0-0.278 0.044-0.372 0.132-0.094 0.083-0.142 0.204-0.142 0.365 0 0.176 0.079 0.313 0.238 0.411s0.407 0.204 0.745 0.318c0.338 0.119 0.611 0.233 0.819 0.341 0.213 0.109 0.397 0.266 0.551 0.473s0.231 0.473 0.231 0.799c0 0.31-0.077 0.592-0.231 0.846-0.149 0.253-0.367 0.455-0.655 0.605s-0.628 0.225-1.020 0.225zM21.404 23.219v1.024h-2.942v-5.446h1.273v4.422h1.668z"></path>
</symbol>
<symbol id="icon-logo" viewBox="0 0 90 32">
<path fill="#450190" style="fill: var(--color3, #450190)" d="M32 16c0 8.837-7.163 16-16 16s-16-7.163-16-16c0-8.837 7.163-16 16-16s16 7.163 16 16z"></path>
<path fill="#fff" style="fill: var(--color1, #fff)" opacity="0.9" d="M8.392 24.8v-16.8h3.216l9.912 12.096h-1.56v-12.096h3.84v16.8h-3.192l-9.936-12.096h1.56v12.096h-3.84z"></path>
<path fill="#000" style="fill: var(--color4, #000)" d="M41.328 21.6v-11.2h2.592v9.088h5.616v2.112h-8.208zM56.237 21.792c-0.885 0-1.707-0.144-2.464-0.432-0.747-0.288-1.397-0.693-1.952-1.216-0.544-0.523-0.971-1.136-1.28-1.84-0.299-0.704-0.448-1.472-0.448-2.304s0.149-1.6 0.448-2.304c0.309-0.704 0.741-1.317 1.296-1.84s1.205-0.928 1.952-1.216c0.747-0.288 1.557-0.432 2.432-0.432 0.885 0 1.696 0.144 2.432 0.432 0.747 0.288 1.392 0.693 1.936 1.216 0.555 0.523 0.987 1.136 1.296 1.84 0.309 0.693 0.464 1.461 0.464 2.304 0 0.832-0.155 1.605-0.464 2.32-0.309 0.704-0.741 1.317-1.296 1.84-0.544 0.512-1.189 0.912-1.936 1.2-0.736 0.288-1.541 0.432-2.416 0.432zM56.221 19.584c0.501 0 0.96-0.085 1.376-0.256 0.427-0.171 0.8-0.416 1.12-0.736s0.565-0.699 0.736-1.136c0.181-0.437 0.272-0.923 0.272-1.456s-0.091-1.019-0.272-1.456c-0.171-0.437-0.416-0.816-0.736-1.136-0.309-0.32-0.677-0.565-1.104-0.736s-0.891-0.256-1.392-0.256c-0.501 0-0.965 0.085-1.392 0.256-0.416 0.171-0.784 0.416-1.104 0.736s-0.571 0.699-0.752 1.136c-0.171 0.437-0.256 0.923-0.256 1.456 0 0.523 0.085 1.008 0.256 1.456 0.181 0.437 0.427 0.816 0.736 1.136 0.32 0.32 0.693 0.565 1.12 0.736s0.891 0.256 1.392 0.256zM69.705 21.792c-0.885 0-1.701-0.139-2.448-0.416-0.736-0.288-1.381-0.693-1.936-1.216-0.544-0.523-0.971-1.136-1.28-1.84-0.299-0.704-0.448-1.477-0.448-2.32s0.149-1.616 0.448-2.32c0.309-0.704 0.741-1.317 1.296-1.84s1.205-0.923 1.952-1.2c0.747-0.288 1.568-0.432 2.464-0.432 0.992 0 1.883 0.165 2.672 0.496 0.8 0.331 1.472 0.811 2.016 1.44l-1.664 1.536c-0.405-0.427-0.848-0.741-1.328-0.944-0.48-0.213-1.003-0.32-1.568-0.32-0.544 0-1.040 0.085-1.488 0.256s-0.837 0.416-1.168 0.736c-0.32 0.32-0.571 0.699-0.752 1.136-0.171 0.437-0.256 0.923-0.256 1.456 0 0.523 0.085 1.003 0.256 1.44 0.181 0.437 0.432 0.821 0.752 1.152 0.331 0.32 0.715 0.565 1.152 0.736 0.448 0.171 0.939 0.256 1.472 0.256 0.512 0 1.008-0.080 1.488-0.24 0.491-0.171 0.965-0.453 1.424-0.848l1.472 1.872c-0.608 0.459-1.317 0.811-2.128 1.056-0.8 0.245-1.6 0.368-2.4 0.368zM71.865 20.032v-4.208h2.368v4.544l-2.368-0.336zM82.081 21.792c-0.886 0-1.707-0.144-2.464-0.432-0.747-0.288-1.397-0.693-1.952-1.216-0.544-0.523-0.971-1.136-1.28-1.84-0.299-0.704-0.448-1.472-0.448-2.304s0.149-1.6 0.448-2.304c0.309-0.704 0.741-1.317 1.296-1.84s1.205-0.928 1.952-1.216c0.747-0.288 1.557-0.432 2.432-0.432 0.885 0 1.696 0.144 2.432 0.432 0.746 0.288 1.392 0.693 1.936 1.216 0.554 0.523 0.986 1.136 1.296 1.84 0.309 0.693 0.464 1.461 0.464 2.304 0 0.832-0.155 1.605-0.464 2.32-0.31 0.704-0.742 1.317-1.296 1.84-0.544 0.512-1.19 0.912-1.936 1.2-0.736 0.288-1.542 0.432-2.416 0.432zM82.065 19.584c0.501 0 0.96-0.085 1.376-0.256 0.426-0.171 0.8-0.416 1.12-0.736s0.565-0.699 0.736-1.136c0.181-0.437 0.272-0.923 0.272-1.456s-0.091-1.019-0.272-1.456c-0.171-0.437-0.416-0.816-0.736-1.136-0.31-0.32-0.678-0.565-1.104-0.736s-0.891-0.256-1.392-0.256c-0.502 0-0.966 0.085-1.392 0.256-0.416 0.171-0.784 0.416-1.104 0.736s-0.571 0.699-0.752 1.136c-0.171 0.437-0.256 0.923-0.256 1.456 0 0.523 0.085 1.008 0.256 1.456 0.181 0.437 0.427 0.816 0.736 1.136 0.32 0.32 0.693 0.565 1.12 0.736s0.89 0.256 1.392 0.256z"></path>
</symbol>
<symbol id="icon-adult" viewBox="0 0 32 32">
<path fill="#060048" style="fill: var(--color2, #060048)" opacity="0.2" d="M16 32c8.837 0 16-7.163 16-16s-7.163-16-16-16c-8.837 0-16 7.163-16 16s7.163 16 16 16zM12.211 15.666c-0.813-0.432-1.219-1.111-1.219-2.037 0-0.467 0.121-0.891 0.363-1.271 0.242-0.389 0.61-0.696 1.103-0.921 0.493-0.234 1.098-0.35 1.816-0.35s1.319 0.117 1.803 0.35c0.493 0.225 0.861 0.532 1.103 0.921 0.242 0.381 0.363 0.804 0.363 1.271s-0.113 0.874-0.337 1.219c-0.216 0.346-0.51 0.618-0.882 0.817 0.467 0.225 0.826 0.536 1.077 0.934 0.251 0.389 0.376 0.848 0.376 1.375 0 0.614-0.156 1.146-0.467 1.596-0.311 0.441-0.735 0.778-1.271 1.012-0.528 0.233-1.116 0.35-1.764 0.35s-1.241-0.117-1.777-0.35c-0.528-0.234-0.947-0.571-1.258-1.012-0.311-0.45-0.467-0.982-0.467-1.596 0-0.536 0.125-0.999 0.376-1.388 0.251-0.398 0.605-0.705 1.064-0.921zM15.39 13.967c0 0.337-0.104 0.605-0.311 0.804s-0.476 0.298-0.804 0.298-0.597-0.095-0.804-0.285c-0.208-0.199-0.311-0.467-0.311-0.804 0-0.355 0.099-0.631 0.298-0.83 0.208-0.199 0.48-0.298 0.817-0.298s0.605 0.099 0.804 0.298c0.208 0.19 0.311 0.463 0.311 0.817zM14.274 16.626c0.398 0 0.718 0.112 0.96 0.337 0.251 0.225 0.376 0.528 0.376 0.908 0 0.363-0.121 0.662-0.363 0.895-0.234 0.233-0.558 0.35-0.973 0.35s-0.748-0.117-0.999-0.35c-0.242-0.234-0.363-0.532-0.363-0.895 0-0.389 0.125-0.692 0.376-0.908 0.251-0.225 0.579-0.337 0.986-0.337zM5.543 13.344v-2.063h3.594v9.47h-2.309v-7.408h-1.284zM23.607 17.21v2.309h-2.102v-2.309h-2.257v-1.985h2.257v-2.322h2.102v2.322h2.257v1.985h-2.257z"></path>
</symbol>
<symbol id="icon-Vector-7" viewBox="0 0 37 32">
<path stroke-linejoin="miter" stroke-linecap="butt" stroke-miterlimit="4" stroke-width="18.2857" d="M15.755 9.143h5.062l-2.531 4.429-2.531-4.429z"></path>
</symbol>
<symbol id="icon-twitter" viewBox="0 0 37 32">
<path d="M36.45 3.646c-1.291 0.597-2.675 1.002-4.128 1.182 1.484-0.93 2.623-2.408 3.156-4.165-1.39 0.865-2.926 1.489-4.561 1.828-1.312-1.461-3.177-2.375-5.246-2.375-3.966 0-7.184 3.371-7.184 7.525 0 0.591 0.063 1.166 0.188 1.713-5.972-0.312-11.265-3.311-14.807-7.865-0.617 1.111-0.972 2.403-0.972 3.782 0 2.611 1.27 4.915 3.198 6.261-1.176-0.038-2.283-0.378-3.255-0.941 0 0.033 0 0.060 0 0.093 0 3.645 2.477 6.688 5.763 7.378-0.601 0.17-1.238 0.263-1.891 0.263-0.465 0-0.914-0.049-1.353-0.137 0.914 2.988 3.569 5.167 6.709 5.227-2.461 2.020-5.554 3.224-8.924 3.224-0.58 0-1.149-0.038-1.714-0.104 3.177 2.134 6.954 3.382 11.014 3.382 13.213 0 20.439-11.466 20.439-21.41 0-0.328-0.005-0.651-0.021-0.974 1.406-1.062 2.623-2.386 3.584-3.897l0.005 0.011z"></path>
</symbol>
<symbol id="icon-linkedin" viewBox="0 0 32 32">
<path d="M6.82 32h-6.295v-22.284h6.295v22.284zM3.672 7.147c-2.027 0-3.672-1.6-3.672-3.574s1.645-3.574 3.672-3.574c2.027 0 3.672 1.6 3.672 3.574s-1.643 3.574-3.672 3.574zM32 32h-6.295v-11.353c0-6.823-8.393-6.306-8.393 0v11.353h-6.295v-22.284h6.295v3.576c2.929-5.239 14.689-5.626 14.689 5.016v13.693z"></path>
</symbol>
<symbol id="icon-circle-right" viewBox="0 0 32 32">
<path d="M16 0c-8.837 0-16 7.163-16 16s7.163 16 16 16 16-7.163 16-16-7.163-16-16-16zM16 29c-7.18 0-13-5.82-13-13s5.82-13 13-13 13 5.82 13 13-5.82 13-13 13z"></path>
<path d="M11.086 22.086l2.829 2.829 8.914-8.914-8.914-8.914-2.828 2.828 6.086 6.086z"></path>
</symbol>
<symbol id="icon-circle-left" viewBox="0 0 32 32">
<path d="M16 32c8.837 0 16-7.163 16-16s-7.163-16-16-16-16 7.163-16 16 7.163 16 16 16zM16 3c7.18 0 13 5.82 13 13s-5.82 13-13 13-13-5.82-13-13 5.82-13 13-13z"></path>
<path d="M20.914 9.914l-2.829-2.829-8.914 8.914 8.914 8.914 2.828-2.828-6.086-6.086z"></path>
<symbol id="icon-burger" viewBox="0 0 32 32">
<path d="M1.28 5.76h29.44c0.707 0 1.28 0.573 1.28 1.28s-0.573 1.28-1.28 1.28h-29.44c-0.707 0-1.28-0.573-1.28-1.28s0.573-1.28 1.28-1.28z"></path>
<path d="M1.28 14.72h29.44c0.707 0 1.28 0.573 1.28 1.28s-0.573 1.28-1.28 1.28h-29.44c-0.707 0-1.28-0.573-1.28-1.28s0.573-1.28 1.28-1.28z"></path>
<path d="M1.28 23.68h29.44c0.707 0 1.28 0.573 1.28 1.28s-0.573 1.28-1.28 1.28h-29.44c-0.707 0-1.28-0.573-1.28-1.28s0.573-1.28 1.28-1.28z"></path>
</symbol><symbol id="icon-close" viewBox="0 0 32 32">
<path fill="none" stroke-linejoin="round" stroke-linecap="round" stroke-miterlimit="4" stroke-width="2" d="M25.333 6.667l-18.667 18.667M6.667 6.667l18.667 18.667"></path>
</defs>
</svg>